<?xml version="1.0" encoding="utf-8"?>
<!-- Generator: Adobe Illustrator 27.2.0, SVG Export Plug-In . SVG Version: 6.00 Build 0)  -->
<svg version="1.1" id="Vrstva_1" xmlns="http://www.w3.org/2000/svg" xmlns:xlink="http://www.w3.org/1999/xlink" x="0px" y="0px"
	 viewBox="0 0 508.44 256" style="enable-background:new 0 0 508.44 256;" xml:space="preserve">
<style type="text/css">
	.st0{fill:#12100B;}
</style>
<path class="st0" d="M133.65,220.54c-0.54-0.7-0.79-1.02-1.11-1.44c-0.53,0.83-0.95,1.64-1.52,2.33c-0.49,0.59-0.65,1.91-1.89,1.13
	c-0.6,0.7-1.12,1.42-1.77,2c-0.28,0.25-0.83,0.17-1.22,0.32c-0.3,0.12-0.6,0.33-0.82,0.58c-1.48,1.65-2.92,3.32-4.4,4.97
	c-0.33,0.37-0.73,0.66-1.28,1.15c0-0.48-0.06-0.76,0.01-0.99c0.66-2.37,1.34-4.74,2.01-7.11c0.11-0.41,0.5-0.73-0.17-1.24
	c-0.32-0.25,0.09-1.44,0.15-2.21c0.05-0.61,1.1-1.28-0.11-1.84c-0.06-0.03,0.06-0.55,0.17-0.81c0.5-1.14,1.03-2.27,1.59-3.48
	c-0.46-0.05-0.88-0.1-1.75-0.2c1.06-1.54,1.98-2.87,2.93-4.26c-0.46-0.04-0.96-0.09-1.87-0.18c1.07-1.41,1.98-2.61,2.91-3.84
	c-0.33-0.07-0.78-0.15-1.36-0.27c0.66-1.75,2.24-2.56,3.55-3.84c-0.6-0.09-1.02-0.16-1.59-0.24c0.54-1.9,2.13-2.51,3.6-3.28
	c-0.82-0.95-2.53,0.8-2.79-1.07c-1.15,1.18-2.23,2.31-3.35,3.42c-0.29,0.29-0.67,0.5-1.04,0.69c-1.02,0.52-1.28,0.33-1.22-0.86
	c0.01-0.16-0.02-0.32-0.05-0.82c-0.82,0.88-1.45,1.57-2.1,2.25c-0.23,0.24-0.48,0.46-0.74,0.68c-1.76,1.51-1.95,1.47-2.79-0.78
	c-1.38,2.14-2.8,4.15-5.66,4.62c0.09-0.92,0.16-1.68,0.27-2.74c-2.09,1.92-3.85,3.86-6.67,4.68c0.09-0.99,0.15-1.72,0.25-2.8
	c-1.89,1.9-3.9,3.03-6.46,3.59c0.17-1.03,0.31-1.87,0.49-3c-2.18,1.71-4.32,2.99-7.08,3.49c0.13-0.91,0.23-1.61,0.33-2.3
	c-2.28,0.63-4.54,1.25-6.93,1.9c0-0.7,0-1.06,0-1.38c-1.57,0.19-3.13,0.4-4.68,0.55c-0.78,0.07-1.48-0.05-1.02-1.24
	c-4.56,0.79-8.96,1.74-13.52,1.43c3.3-3.19,7.3-5.26,11.45-7.67c-0.45-0.18-0.79-0.31-1.14-0.44c0.02-0.18,0.04-0.35,0.06-0.53
	c1.57-1.04,3.15-2.09,4.77-3.16c-0.13-0.18-0.36-0.5-0.77-1.05c2.19-0.99,4.26-1.93,6.47-2.92c-0.48-0.44-1-0.92-1.72-1.58
	c2.41-1.38,4.89-1.8,7.73-1.84c-0.85-0.72-1.49-1.27-2.32-1.97c2.29-1.22,4.52-1.61,7.2-1.36c-0.71-0.74-1.22-1.28-1.93-2.03
	c2.69-1.16,5.29-0.78,8.01-0.91c-0.61-0.46-1.22-0.92-2.01-1.52c2.65-1.7,5.01-0.95,7.33-0.28c0.06-0.14,0.14-0.23,0.12-0.27
	c-0.9-1.89-0.79-2.08,1.39-2.04c1.23,0.03,2.45,0.15,3.79,0.23c-0.26-1.06-0.88-1.22-1.64-1.18c-1.63,0.07-3.26,0.17-4.89,0.19
	c-2.15,0.03-2.27-0.14-1.73-2.17c0.03-0.11,0-0.24,0-0.52c-0.56,0.12-1.07,0.23-1.58,0.34c-2.44,0.53-4.9,0.65-7.33,0.06
	c-0.56-0.14-1.04-0.6-1.56-0.91c0.33-0.44,0.63-0.91,1.02-1.29c0.22-0.22,0.58-0.3,0.87-0.45c-0.11-0.15-0.21-0.31-0.32-0.46
	c-0.76,0.06-1.53,0.17-2.29,0.17c-1.88-0.01-3.76,0.04-5.62-0.16c-1.55-0.16-1.69-0.69-0.8-1.95c0.26-0.38,0.51-0.76,0.75-1.16
	c0.05-0.09,0.01-0.23,0.01-0.45c-3.71,1.12-7.36,1.8-11.1-0.64c1.24-1.01,2.21-1.8,3.18-2.59c-0.05-0.09-0.09-0.19-0.14-0.28
	c-0.39,0.03-0.78,0.05-1.18,0.09c-3.11,0.25-6.19,0.02-9.19-0.87c-0.43-0.13-0.77-0.54-1.16-0.81c0.27-0.35,0.5-0.75,0.82-1.04
	c0.57-0.51,1.19-0.95,1.87-1.49c-1.98-0.24-3.77-0.29-5.48-0.7c-1.71-0.41-3.34-1.17-5-1.78c-0.01-0.16-0.02-0.32-0.02-0.48
	c1.13-0.82,2.27-1.65,3.68-2.67c-4.27-0.15-7.95-1.12-11.63-3.35c1.18-0.87,2.11-1.56,3.16-2.34c-3.53-1.21-6.72-2.78-9.78-5.02
	c0.57-0.5,1.02-0.89,1.61-1.41c-2.77-1.3-5.34-2.77-7.17-5.44c0.54-0.29,1-0.54,1.61-0.87c-5.87-3.74-11.71-7.33-16.55-12.36
	c7.01-0.11,13.65,1.72,20.45,3.35c-0.2-0.59-0.36-1.05-0.58-1.7c3.18-0.58,6.02,0.26,8.94,1.39c-0.03-0.71-0.06-1.31-0.1-2.18
	c3.7,0.63,7.07,1.86,10.47,3.56c-0.16-1.29-0.31-2.44-0.49-3.87c4.17,1.07,7.43,3.1,10.47,6.09c-0.25-1.7-0.45-3.1-0.7-4.79
	c3.86,1.08,6.86,2.87,9.44,5.74c-0.06-0.82-0.17-1.64-0.17-2.47c0-0.42,0.07-0.96,0.33-1.23c0.14-0.15,0.79,0.03,1.13,0.21
	c2.79,1.52,5.08,3.65,7.1,6.08c0.21,0.26,0.41,0.52,0.63,0.78c0.04,0.05,0.14,0.04,0.44,0.13c-0.09-0.92-0.17-1.77-0.27-2.62
	c-0.16-1.34,0.14-1.6,1.43-1.12c1.94,0.73,3.42,2.08,4.6,3.74c0.75,1.05,1.36,2.19,2.21,3.59c0.2-0.85,0.35-1.45,0.48-2.06
	c0.27-1.18,0.71-1.47,1.61-0.7c1.64,1.41,3.12,3,4.64,4.53c0.4,0.41,0.73,0.89,1.32,1.63c0-0.83,0.02-1.32,0-1.82
	c-0.05-1.1,0.45-1.54,1.32-0.91c1.57,1.14,3.05,2.44,4.41,3.83c0.88,0.9,1.48,2.09,2.2,3.15c0.51-0.59,0.94-1.52,1.47-1.58
	c0.55-0.06,1.19,0.74,1.81,1.11c0.18,0.11,0.45,0.04,1.01,0.08c-0.4-0.56-0.61-0.93-0.9-1.24c-1.64-1.73-3.32-3.42-4.93-5.17
	c-1.58-1.72-1.5-2.04,0.57-2.97c0.18-0.08,0.34-0.21,0.65-0.4c-0.38-0.29-0.65-0.52-0.94-0.71c-2.3-1.51-4.26-3.37-5.81-5.64
	c-0.44-0.65-0.84-1.36-1.12-2.09c-0.46-1.19-0.03-1.67,1.22-1.47c0.6,0.09,1.19,0.18,1.79,0.27c0.13-0.17,0.26-0.34,0.39-0.51
	c-0.35-0.19-0.77-0.32-1.04-0.59c-1.56-1.57-3.12-3.14-4.6-4.78c-0.55-0.61-0.95-1.37-1.32-2.12c-0.37-0.75-0.15-1.29,0.78-1.39
	c0.86-0.09,1.71-0.22,2.67-0.64c-0.3-0.21-0.6-0.45-0.92-0.64c-2.27-1.32-4.23-2.99-5.67-5.21c-0.36-0.56-0.74-1.14-0.93-1.77
	c-0.22-0.73-0.23-1.52-0.33-2.29c0.71,0.02,1.43-0.01,2.13,0.06c0.8,0.08,1.6,0.26,2.51,0.11c-0.21-0.22-0.4-0.47-0.63-0.67
	c-2.48-2.23-4.53-4.8-6.19-7.68c-0.37-0.65-0.68-1.34-0.94-2.04c-0.35-0.93,0.04-1.37,1.01-1.25c0.5,0.06,0.98,0.2,1.48,0.28
	c0.65,0.1,1.29,0.17,2.03,0.13c-3.28-3.06-5.04-6.84-6.12-11.47c2,0.44,3.65,0.8,5.23,1.15c-1.26-2.05-2.62-4-3.69-6.09
	c-0.81-1.58-1.35-3.33-1.86-5.04c-0.41-1.39-0.09-1.66,1.36-1.34c0.92,0.2,1.83,0.48,2.92,0.77c-1.72-4.17-2.92-8.25-3.31-12.74
	c0.98,0.18,1.7,0.3,2.59,0.46c-1.21-3.5-1.78-6.94-0.97-10.68c0.71,0.3,1.26,0.54,2.04,0.87c-1.42-8.15-2.81-16.14-2.53-24.27
	c0.14-0.07,0.28-0.13,0.41-0.2c0.51,0.55,1.12,1.04,1.51,1.67c3.14,4.98,6.25,9.98,9.33,15c0.77,1.26,1.38,2.62,2.15,4.1
	c0.39-0.71,0.69-1.24,1.1-1.98c2.89,2.43,4.56,5.47,5.77,9.02c0.61-0.67,1.1-1.2,1.77-1.94c2.44,3.77,3.99,7.73,5.17,12.06
	c0.96-1.17,1.86-2.26,2.97-3.62c2.42,4.48,3.22,8.97,2.95,14.03c1.3-1.56,2.39-2.87,3.71-4.47c1.94,4.32,2.92,8.36,2.29,12.93
	c0.6-0.62,1.16-1.27,1.8-1.85c0.47-0.43,1.03-0.77,1.55-1.15c0.3,0.57,0.75,1.11,0.87,1.71c0.75,3.56,0.69,7.14,0.13,10.72
	c-0.07,0.43-0.13,0.87-0.2,1.31c0.11,0.07,0.22,0.13,0.33,0.2c0.7-0.79,1.41-1.56,2.1-2.36c1.02-1.17,1.48-1.14,2.03,0.35
	c1.15,3.09,0.77,6.17-0.22,9.22c-0.24,0.75-0.55,1.47-0.61,2.5c0.68-0.39,1.36-0.79,2.04-1.18c1.17-0.69,1.84-0.49,1.83,0.84
	c-0.02,2.87-0.3,5.73-0.49,8.6c-0.03,0.4-0.12,0.8,0.07,1.38c0.41-0.42,0.83-0.83,1.23-1.26c0.96-1.03,1.8-0.91,1.96,0.47
	c0.25,2.09,0.31,4.24,0.15,6.34c-0.12,1.63-0.71,3.23-1.12,4.98c0.37-0.05,0.68-0.07,0.98-0.14c1.75-0.42,2.14-0.15,2,1.68
	c-0.15,2-0.43,3.99-0.64,5.98c-0.09,0.9-0.13,1.8-0.19,2.7c0.14,0.06,0.28,0.11,0.42,0.17c0.2-0.31,0.49-0.59,0.58-0.93
	c0.47-1.89,0.45-1.89,2.29-1.19c0.14,0.05,0.31,0.05,0.23,0.04c0.14-2.47,0.24-4.91,0.45-7.34c0.06-0.73,0.36-1.47,0.67-2.14
	c0.52-1.12,1.03-1.12,1.78-0.08c0.24,0.32,0.46,0.66,0.99,0.92c0.02-0.42,0.03-0.85,0.07-1.27c0.24-2.2,0.37-4.41,0.78-6.58
	c0.29-1.51,0.84-1.58,2.02-0.55c0.4,0.34,0.82,0.66,1.49,0.85c-0.07-0.38-0.13-0.76-0.21-1.14c-0.54-2.82-0.49-5.59,0.87-8.19
	c0.25-0.48,0.77-0.82,1.16-1.23c0.34,0.4,0.71,0.77,1.01,1.2c0.42,0.59,0.79,1.21,1.47,1.72c0.02-0.39,0.05-0.79,0.06-1.18
	c0.07-3.12,0.59-6.16,1.82-9.04c0.17-0.41,0.62-0.7,0.94-1.05c0.32,0.31,0.69,0.58,0.95,0.93c0.46,0.63,0.85,1.3,1.42,1.94
	c0.18-3.81,1.5-7.1,3.86-10.36c0.84,1.53,1.51,2.75,2.35,4.28c0.12-0.65,0.19-0.98,0.24-1.31c0.46-3.2,1.68-6.11,3.47-8.79
	c0.68-1.01,0.98-0.99,1.58,0.04c0.39,0.68,0.72,1.39,1.19,2.31c1.71-3.4,3.57-6.47,6.18-9.29c0.43,0.64,0.77,1.14,1.2,1.78
	c1.61-2.66,3.39-5.02,6.19-6.57c0.23,0.6,0.4,1.05,0.64,1.69c4.34-5.48,8.58-10.92,14.06-15.26c0.01,3.56-1.06,6.84-2.08,10.11
	c-1.01,3.26-2.17,6.48-3.29,9.82c0.53-0.06,1.04-0.11,1.68-0.18c0.24,3.14-0.89,5.85-2.32,8.65c0.73,0,1.32,0,2.16,0
	c-1.04,3.68-2.65,6.89-4.63,10.06c1.27,0,2.4,0,3.88,0c-1.5,3.94-3.79,7.01-7.06,9.64c1.61,0,3.03,0,4.72,0
	c-1.49,3.57-3.57,6.37-6.7,8.38c0.03,0.11,0.06,0.22,0.09,0.34c0.8,0,1.6-0.03,2.4,0.01c0.39,0.02,1.05,0.12,1.11,0.32
	c0.1,0.36-0.04,0.9-0.28,1.24c-1.82,2.61-4.16,4.67-6.79,6.42c-0.33,0.22-0.65,0.44-0.98,0.66c0.03,0.12,0.06,0.23,0.09,0.35
	c0.81,0,1.63,0.01,2.44,0c1.49-0.02,1.72,0.32,0.99,1.66c-1.17,2.14-3.01,3.55-5.15,4.61c-0.81,0.4-1.67,0.72-2.82,1.21
	c0.82,0.31,1.37,0.53,1.92,0.71c1.34,0.43,1.55,0.9,0.53,1.9c-1.37,1.33-2.92,2.48-4.42,3.68c-0.58,0.46-1.24,0.81-1.83,1.51
	c0.41,0.03,0.83,0.03,1.23,0.1c0.43,0.08,1.13,0.16,1.19,0.39c0.11,0.4-0.03,1.05-0.32,1.34c-1.4,1.35-2.84,2.69-4.38,3.88
	c-0.9,0.7-2.03,1.1-3.05,1.63c0.02,0.13,0,0.24,0.05,0.28c1.87,1.51,1.88,1.63-0.1,3.09c-1.24,0.92-2.56,1.75-3.76,2.71
	c-0.43,0.35-0.64,0.98-0.95,1.49c0.14,0.11,0.28,0.22,0.42,0.33c0.35-0.3,0.7-0.6,1.05-0.9c0.79-0.68,1.54-1.41,2.39-2.01
	c1.12-0.79,1.43-0.61,1.62,0.76c0.03,0.2,0.08,0.39,0.17,0.85c1.59-2.12,2.99-4.22,5.95-4.51c-0.12,0.92-0.23,1.67-0.37,2.72
	c2.13-1.88,3.97-3.7,6.78-4.5c-0.09,0.96-0.16,1.72-0.26,2.79c1.93-1.79,3.96-2.86,6.55-3.35c-0.21,1.05-0.38,1.88-0.58,2.91
	c2.26-1.52,4.38-2.86,7.18-3.12c-0.16,0.85-0.28,1.52-0.41,2.24c2.32-0.55,4.6-1.08,6.97-1.64c0,0.69,0,1.04,0,1.31
	c1.61-0.12,3.17-0.27,4.74-0.36c0.78-0.04,1.39,0.18,0.84,1.32c4.59-0.64,9.02-1.37,13.59-0.93c-3.4,3.03-7.43,4.99-11.47,7.12
	c0.26,0.29,0.46,0.51,0.91,1.01c-1.71,1.05-3.32,2.03-4.99,3.05c0.14,0.19,0.36,0.5,0.79,1.09c-2.24,0.93-4.38,1.82-6.55,2.72
	c0.5,0.38,1.07,0.81,1.85,1.39c-2.66,1.62-5.17,1.75-7.98,1.87c0.81,0.72,1.41,1.25,2.19,1.95c-2.28,1.25-4.53,1.47-7.21,1.2
	c0.68,0.76,1.17,1.3,1.8,2.01c-2.67,1.2-5.26,0.65-8.11,0.43c0.71,0.74,1.23,1.29,1.86,1.95c-2.49,1.53-4.83,0.65-7.33-0.12
	c0.27,0.7,0.46,1.2,0.7,1.82c-1.78-0.28-3.07-1.13-4.05-2.41c-0.22-0.29-0.24-0.78-0.25-1.17c-0.02-3.51-0.01-7.02-0.01-10.54
	c0-1.5-0.42-1.9-1.94-1.91c-1.59,0-3.18,0-4.77,0c-1.84,0-2.31,0.47-2.32,2.27c0,0.57,0,1.15,0,2.01c-0.53-0.48-0.86-0.77-1.17-1.07
	c-5.53-5.53-11.06-11.05-16.59-16.58c-1.28-1.28-1.75-1.29-2.99-0.05c-11.68,11.68-23.36,23.35-35.02,35.04
	c-0.36,0.36-0.73,0.85-0.81,1.32c-0.24,1.47,0.17,1.88,1.66,1.88c2.29,0,4.58,0,6.99,0c0.03,0.61,0.07,1.09,0.07,1.58
	c0,7.73,0,15.47,0,23.2c0,1.85,0.43,2.29,2.27,2.29c1.75,0,3.5,0,5.64,0c-0.57,1.43-1.05,2.64-1.63,4.1
	c-0.53-0.7-0.81-1.08-1.11-1.48C135.04,217.32,134.41,218.78,133.65,220.54z"/>
<g>
	<polygon class="st0" points="336.99,112.47 364.14,112.47 364.14,101.94 336.99,101.94 336.99,89.24 367.74,89.24 367.74,78.38 
		326.06,78.38 323.54,78.38 313.11,78.38 299.49,119.82 286.12,78.38 273.59,78.38 259.8,119.49 246.6,78.38 232.57,78.38 
		251.78,136.86 266.24,136.86 279.52,97.26 292.39,136.86 306.93,136.86 323.54,86.08 323.54,136.86 368.82,136.86 368.82,126 
		336.99,126 	"/>
	<polygon class="st0" points="383.02,112.47 410.17,112.47 410.17,101.94 383.02,101.94 383.02,89.24 413.77,89.24 413.77,78.38 
		369.57,78.38 369.57,136.86 414.85,136.86 414.85,126 383.02,126 	"/>
	<path class="st0" d="M442.16,78.38H415.6v58.48h26.57c19.13,0,32.25-11.53,32.25-29.24S461.3,78.38,442.16,78.38z M441.49,125.75
		h-12.36V89.49h12.36c11.62,0,19.22,6.93,19.22,18.13S453.11,125.75,441.49,125.75z"/>
</g>
<g>
	<polygon class="st0" points="280.93,158.4 253.69,158.4 253.69,140.15 251.8,140.15 251.8,178.99 253.69,178.99 253.69,160.12 
		280.93,160.12 280.93,178.99 282.82,178.99 282.82,140.15 280.93,140.15 	"/>
	<path class="st0" d="M318.95,139.92c-11.43,0-20.03,8.38-20.03,19.64c0,11.27,8.6,19.64,20.03,19.64
		c11.49,0,20.09-8.38,20.09-19.64C339.03,148.3,330.43,139.92,318.95,139.92z M318.95,177.49c-10.32,0-18.15-7.66-18.15-17.92
		c0-10.27,7.82-17.92,18.15-17.92c10.38,0,18.2,7.66,18.2,17.92C337.15,169.83,329.32,177.49,318.95,177.49z"/>
	<path class="st0" d="M383.43,162.56c0,10.04-4.88,14.93-13.37,14.93c-8.54,0-13.37-4.88-13.37-14.93v-22.42h-1.89v22.47
		c0,11.04,5.83,16.59,15.26,16.59c9.43,0,15.21-5.55,15.21-16.59v-22.47h-1.83V162.56z"/>
	<path class="st0" d="M403.85,149.91c0-4.55,3.61-8.32,11.49-8.32c3.5,0,7.49,1.11,10.6,3.38l0.83-1.5
		c-2.89-2.16-7.21-3.55-11.49-3.55c-9.27,0-13.26,4.77-13.26,9.99c0,14.37,24.47,6.99,24.47,19.42c0,4.5-3.61,8.21-11.76,8.21
		c-5.38,0-10.32-2.22-12.82-5.05l-1,1.33c2.72,3.16,8.16,5.38,13.87,5.38c9.38,0,13.54-4.66,13.54-9.93
		C428.32,155.18,403.85,162.4,403.85,149.91z"/>
	<polygon class="st0" points="446.19,177.27 446.19,160.12 467.27,160.12 467.27,158.4 446.19,158.4 446.19,141.87 469.77,141.87 
		469.77,140.15 444.3,140.15 444.3,178.99 470.55,178.99 470.55,177.27 	"/>
</g>
</svg>
